
<svg viewBox="0 0 22 22" version="1.1" xmlns="http://www.w3.org/2000/svg" xmlns:xlink="http://www.w3.org/1999/xlink">
    <g id="Page-1" stroke="none" stroke-width="1" fill-rule="evenodd">
        <g id="CounterW1" transform="translate(-613.000000, -894.000000)" fill="currentColor">
            <g id="Group" transform="translate(235.000000, 404.000000)">
                <g id="Social-buttons" transform="translate(378.000000, 489.000000)">
                    <path d="M20,1 L2,1 C0.897,1 0,1.897 0,3 L0,21 C0,22.103 0.897,23 2,23 L9.5,23 C9.776,23 10,22.776 10,22.5 L10,15.5 C10,15.224 9.776,15 9.5,15 L8.521,15 C8.245,15 8.021,14.776 8.021,14.5 L8.021,11.5 C8.021,11.224 8.245,11 8.521,11 L9.5,11 C9.776,11 10,10.776 10,10.5 L10,9.5 C10,7.019 12.019,5 14.5,5 L17.5,5 C17.776,5 18,5.224 18,5.5 L18,8.5 C18,8.776 17.776,9 17.5,9 L14.5,9 C14.224,9 14,9.224 14,9.5 L14,10.5 C14,10.776 14.224,11 14.5,11 L17.5,11 C17.647,11 17.787,11.064 17.881,11.176 C17.977,11.289 18.018,11.437 17.993,11.583 L17.493,14.583 C17.453,14.824 17.246,15 17,15 L14.5,15 C14.224,15 14,15.224 14,15.5 L14,22.5 C14,22.776 14.224,23 14.5,23 L20,23 C21.103,23 22,22.103 22,21 L22,3 C22,1.897 21.103,1 20,1" id="Fill-41"></path>
                </g>
            </g>
        </g>
    </g>
</svg>