<svg viewBox="0 0 24 24" version="1.1" xmlns="http://www.w3.org/2000/svg" xmlns:xlink="http://www.w3.org/1999/xlink">
    <g id="Page-1" stroke="none" stroke-width="1" fill-rule="evenodd">
        <g id="CounterW1" transform="translate(-708.000000, -893.000000)" fill="currentColor">
            <g id="Group" transform="translate(235.000000, 404.000000)">
                <g id="Social-buttons" transform="translate(378.000000, 489.000000)">
                    <path d="M116.5,13.5 L115,13.5 L115,15 C115,15.276 114.776,15.5 114.5,15.5 L112.5,15.5 C112.224,15.5 112,15.276 112,15 L112,13.5 L110.5,13.5 C110.224,13.5 110,13.276 110,13 L110,11 C110,10.724 110.224,10.5 110.5,10.5 L112,10.5 L112,9 C112,8.724 112.224,8.5 112.5,8.5 L114.5,8.5 C114.776,8.5 115,8.724 115,9 L115,10.5 L116.5,10.5 C116.776,10.5 117,10.724 117,11 L117,13 C117,13.276 116.776,13.5 116.5,13.5 L116.5,13.5 Z M109,12 C109,15.309 106.309,18 103,18 C99.691,18 97,15.309 97,12 C97,8.691 99.691,6 103,6 C104.602,6 106.109,6.624 107.243,7.757 C107.336,7.851 107.389,7.978 107.389,8.11 C107.389,8.243 107.336,8.37 107.243,8.464 L105.829,9.879 C105.642,10.066 105.309,10.066 105.122,9.879 C104.555,9.312 103.801,9 103,9 C101.346,9 100,10.346 100,12 C100,13.654 101.346,15 103,15 C104.079,15 105.067,14.408 105.597,13.5 L103,13.5 C102.724,13.5 102.5,13.276 102.5,13 L102.5,11 C102.5,10.724 102.724,10.5 103,10.5 L108.5,10.5 C108.776,10.5 109,10.724 109,11 L109,12 Z M107,0 C100.383,0 95,5.383 95,12 C95,18.617 100.383,24 107,24 C113.617,24 119,18.617 119,12 C119,5.383 113.617,0 107,0 L107,0 Z" id="Fill-45"></path>
                </g>
            </g>
        </g>
    </g>
</svg>