
<svg viewBox="0 0 24 20" version="1.1" xmlns="http://www.w3.org/2000/svg" xmlns:xlink="http://www.w3.org/1999/xlink">
    <g id="Page-1" stroke="none" stroke-width="1" fill-rule="evenodd">
        <g id="CounterW1" transform="translate(-660.000000, -895.000000)" fill="currentColor">
            <g id="Group" transform="translate(235.000000, 404.000000)">
                <g id="Social-buttons" transform="translate(378.000000, 489.000000)">
                    <path d="M70.2679476,4.328 C70.1249476,4.403 69.8469476,4.501 69.5209476,4.597 C69.9119476,4.084 70.2289476,3.501 70.3649476,2.979 C70.4189476,2.776 70.3379476,2.561 70.1659476,2.441 C69.9909476,2.322 69.7619476,2.324 69.5919476,2.445 C69.2979476,2.654 67.9389476,3.256 67.0619476,3.451 C65.9489476,2.45 64.8409476,2 63.5009476,2 C62.4959476,2 61.5649476,2.287 60.4829476,2.929 C58.5959476,4.049 58.2689476,6.47 58.4089476,7.955 C53.2869476,7.467 50.4139476,4.487 49.3929476,3.19 C49.2909476,3.061 49.1289476,2.999 48.9649476,3.001 C48.7999476,3.013 48.6509476,3.105 48.5679476,3.248 C47.3469476,5.341 47.8469476,7.495 48.7849476,8.944 C48.6309476,8.839 48.4749476,8.722 48.3189476,8.593 C48.1689476,8.47 47.9619476,8.442 47.7869476,8.526 C47.6119476,8.608 47.4999476,8.784 47.4999476,8.978 C47.4999476,11.175 48.7869476,12.745 50.0429476,13.637 C49.9199476,13.604 49.7879476,13.566 49.6489476,13.522 C49.4609476,13.465 49.2569476,13.52 49.1269476,13.667 C48.9959476,13.814 48.9629476,14.024 49.0429476,14.203 C49.8459476,16.008 51.4429476,17.354 53.2329476,17.822 C51.6939476,18.759 49.5659476,19.24 47.5579476,19.003 C47.3239476,18.972 47.0989476,19.118 47.0249476,19.344 C46.9509476,19.569 47.0459476,19.816 47.2519476,19.934 C49.6859476,21.324 52.2149476,22 54.9829476,22 C58.7819476,21.997 62.3329476,20.352 64.9989476,17.368 C67.5719476,14.489 68.9209476,10.802 68.6449476,7.445 C69.3059476,6.951 70.3069476,6.027 70.9239476,5.035 C71.0439476,4.843 71.0199476,4.595 70.8659476,4.43 C70.7129476,4.265 70.4679476,4.223 70.2679476,4.328 Z" id="Fill-43"></path>
                </g>
            </g>
        </g>
    </g>
</svg>