<svg viewBox="0 0 24 22" version="1.1" xmlns="http://www.w3.org/2000/svg" xmlns:xlink="http://www.w3.org/1999/xlink">
    <g id="Page-1" stroke="none" stroke-width="1" fill-rule="evenodd">
        <g id="CounterW1" transform="translate(-756.000000, -894.000000)" fill="currentColor">
            <g id="Group" transform="translate(235.000000, 404.000000)">
                <g id="Social-buttons" transform="translate(378.000000, 489.000000)">
                    <path d="M162.500065,1 C158.916065,1 156.000065,3.916 156.000065,7.5 C156.000065,7.776 156.224065,8 156.500065,8 L158.000065,8 C158.905065,8 158.966065,8.427 158.996065,8.632 C159.232065,10.28 156.610065,13.813 156.000065,14 C155.309065,14 154.713065,10.577 154.358065,8.532 C153.685065,4.659 153.049065,1 151.000065,1 C149.611065,1 146.705065,2.891 143.086065,8.219 C143.005065,8.338 142.980065,8.487 143.016065,8.626 C143.053065,8.766 143.147065,8.883 143.276065,8.947 L145.276065,9.947 C145.468065,10.043 145.700065,10.006 145.854065,9.854 L147.135065,8.572 C147.644065,12.186 149.540065,23 154.000065,23 C159.100065,23 167.000065,12.038 167.000065,6.5 C167.000065,3.467 164.981065,1 162.500065,1" id="Fill-47"></path>
                </g>
            </g>
        </g>
    </g>
</svg>