<svg viewBox="0 0 24 18" version="1.1" xmlns="http://www.w3.org/2000/svg" xmlns:xlink="http://www.w3.org/1999/xlink">
    <g id="Page-1" stroke="none" stroke-width="1" fill-rule="evenodd">
        <g id="CounterW1" transform="translate(-804.000000, -896.000000)" fill="currentColor">
            <g id="Group" transform="translate(235.000000, 404.000000)">
                <g id="Social-buttons" transform="translate(378.000000, 489.000000)">
                    <path d="M207.771,12.4205 L200.771,16.9205 C200.689,16.9735 200.595,17.0005 200.5,17.0005 C200.418,17.0005 200.336,16.9795 200.261,16.9395 C200.101,16.8515 200,16.6835 200,16.5005 L200,7.5005 C200,7.3165 200.101,7.1495 200.261,7.0615 C200.421,6.9745 200.617,6.9795 200.771,7.0795 L207.771,11.5795 C207.914,11.6715 208,11.8305 208,12.0005 C208,12.1705 207.914,12.3285 207.771,12.4205 M211.935,3.6735 L210.036,3.4365 C205.384,2.8545 200.617,2.8545 195.965,3.4365 L194.066,3.6735 C192.318,3.8925 191,5.3855 191,7.1475 L191,16.8515 C191,18.6125 192.318,20.1065 194.066,20.3245 L195.965,20.5625 C198.291,20.8525 200.658,21.0005 203,21.0005 C205.343,21.0005 207.71,20.8525 210.036,20.5625 L211.935,20.3245 C213.683,20.1065 215,18.6125 215,16.8515 L215,7.1475 C215,5.3855 213.683,3.8925 211.935,3.6735" id="Fill-49"></path>
                </g>
            </g>
        </g>
    </g>
</svg>